:FULLY-SPECIFIED
:FORCE-ALL-JOINTS-BE-3DOF
:DEGREES
3058
root -0.798378 16.0534 -31.506 7.81515 -35.6775 -8.61202
lfemur -26.2053 11.4031 -4.7959
ltibia 42.1555 -0 0
lfoot -9.54039 6.89328 -0.51837
ltoes -31.7904 0 0
rfemur -21.8634 -6.33197 17.8995
rtibia 51.9003 -0 0
rfoot -18.738 -19.7724 0.0288505
rtoes -16.9606 0 0
lowerback 9.12282 3.29272 -0.257115
upperback -3.83625 4.53059 1.69586
thorax -9.304 2.25652 1.02034
lowerneck -5.4878 -0.0204299 -4.19883
upperneck 11.0389 -0.167483 4.56219
head 4.55184 -0.0191125 1.94134
lclavicle 1.40748e-14 3.20955e-15 -3.09992e-30
lhumerus -21.9707 -0.0582487 87.0621
lradius 50.5294 -0 0
lwrist -19.0839 0 0
lhand -35.9395 30.3588 0.0354207
lfingers 7.12502 -0 0
lthumb -9.05022 60.1172 0.0387776
rclavicle 1.40748e-14 3.20955e-15 -3.09992e-30
rhumerus -39.374 21.1612 -86.022
rradius 60.8576 -0 0
rwrist -28.0842 0 0
rhand -11.1008 -32.4496 0.313952
rfingers 7.12502 -0 0
rthumb 14.9015 -61.6187 0.380549
3059
root -0.785652 16.0589 -31.5165 7.78383 -35.4369 -8.57171
lfemur -26.1402 11.3169 -4.81541
ltibia 42.1144 -0 0
lfoot -9.58813 6.91856 -0.516587
ltoes -31.8435 0 0
rfemur -21.8386 -6.29292 17.9006
rtibia 51.8126 -0 0
rfoot -18.6963 -19.7675 0.0288937
rtoes -16.9663 0 0
lowerback 9.10351 3.28425 -0.261088
upperback -3.83988 4.51874 1.69646
thorax -9.29688 2.25123 1.02678
lowerneck -5.49317 -0.0511512 -4.21939
upperneck 11.0473 -0.208017 4.57229
head 4.55574 -0.0392175 1.94609
lclavicle 1.41902e-14 3.2866e-15 -3.09147e-30
lhumerus -22.0184 -0.105409 87.0797
lradius 50.3828 -0 0
lwrist -19.0876 0 0
lhand -35.9238 30.3634 0.035287
lfingers 7.12502 -0 0
lthumb -9.03506 60.1226 0.0386336
rclavicle 1.41902e-14 3.2866e-15 -3.09147e-30
rhumerus -39.3404 21.0719 -85.9841
rradius 60.6901 -0 0
rwrist -27.8875 0 0
rhand -11.1447 -32.466 0.312862
rfingers 7.12502 -0 0
rthumb 14.8592 -61.6393 0.379227
3060
root -0.77294 16.0645 -31.5269 7.75285 -35.1965 -8.53174
lfemur -26.0753 11.2308 -4.83499
ltibia 42.0733 -0 0
lfoot -9.63581 6.94381 -0.514784
ltoes -31.8964 0 0
rfemur -21.8137 -6.25392 17.9017
rtibia 51.725 -0 0
rfoot -18.6546 -19.7626 0.028933
rtoes -16.9719 0 0
lowerback 9.08422 3.27579 -0.265054
upperback -3.84351 4.5069 1.69705
thorax -9.28977 2.24594 1.03322
lowerneck -5.49853 -0.0818343 -4.23992
upperneck 11.0558 -0.248499 4.58236
head 4.55962 -0.0592965 1.95084
lclavicle 1.43055e-14 3.36357e-15 -3.08288e-30
lhumerus -22.0661 -0.152528 87.0973
lradius 50.2365 -0 0
lwrist -19.0914 0 0
lhand -35.9081 30.3679 0.0351523
lfingers 7.12502 -0 0
lthumb -9.01991 60.1279 0.0384884
rclavicle 1.43055e-14 3.36357e-15 -3.08288e-30
rhumerus -39.307 20.9828 -85.9464
rradius 60.5228 -0 0
rwrist -27.691 0 0
rhand -11.1886 -32.4823 0.31176
rfingers 7.12502 -0 0
rthumb 14.817 -61.6598 0.377891
3061
root -0.760244 16.07 -31.5374 7.7222 -34.9564 -8.49209
lfemur -26.0104 11.1448 -4.85465
ltibia 42.0323 -0 0
lfoot -9.68343 6.96902 -0.512962
ltoes -31.9493 0 0
rfemur -21.7889 -6.21498 17.9028
rtibia 51.6374 -0 0
rfoot -18.613 -19.7578 0.0289684
rtoes -16.9775 0 0
lowerback 9.06497 3.26734 -0.269012
upperback -3.84713 4.49508 1.69765
thorax -9.28267 2.24066 1.03965
lowerneck -5.50386 -0.112479 -4.26042
upperneck 11.0642 -0.288929 4.59242
head 4.5635 -0.0793493 1.95558
lclavicle 1.44207e-14 3.44044e-15 -3.07415e-30
lhumerus -22.1138 -0.199603 87.1149
lradius 50.0903 -0 0
lwrist -19.0952 0 0
lhand -35.8924 30.3725 0.0350165
lfingers 7.12502 -0 0
lthumb -9.00479 60.1332 0.038342
rclavicle 1.44207e-14 3.44044e-15 -3.07415e-30
rhumerus -39.2737 20.8937 -85.9088
rradius 60.3557 -0 0
rwrist -27.4947 0 0
rhand -11.2325 -32.4986 0.310648
rfingers 7.12502 -0 0
rthumb 14.7748 -61.6803 0.376541
3062
root -0.747562 16.0756 -31.5478 7.69188 -34.7166 -8.45277
lfemur -25.9456 11.059 -4.87438
ltibia 41.9914 -0 0
lfoot -9.73099 6.99421 -0.511122
ltoes -32.0022 0 0
rfemur -21.7641 -6.17608 17.904
rtibia 51.55 -0 0
rfoot -18.5715 -19.7529 0.029
rtoes -16.9831 0 0
lowerback 9.04574 3.2589 -0.272963
upperback -3.85074 4.48327 1.69825
thorax -9.27557 2.23539 1.04606
lowerneck -5.50918 -0.143084 -4.28089
upperneck 11.0726 -0.329306 4.60246
head 4.56737 -0.0993755 1.96031
lclavicle 1.45358e-14 3.51723e-15 -3.06527e-30
lhumerus -22.1613 -0.246635 87.1325
lradius 49.9443 -0 0
lwrist -19.0989 0 0
lhand -35.8768 30.3771 0.0348796
lfingers 7.12502 -0 0
lthumb -8.98968 60.1385 0.0381944
rclavicle 1.45358e-14 3.51723e-15 -3.06527e-30
rhumerus -39.2405 20.8048 -85.8713
rradius 60.1888 -0 0
rwrist -27.2986 0 0
rhand -11.2763 -32.5149 0.309524
rfingers 7.12502 -0 0
rthumb 14.7327 -61.7008 0.375178
3063
root -0.734897 16.0811 -31.5582 7.66189 -34.4772 -8.41376
lfemur -25.8808 10.9733 -4.89417
ltibia 41.9505 -0 0
lfoot -9.77849 7.01936 -0.509262
ltoes -32.055 0 0
rfemur -21.7394 -6.13724 17.9051
rtibia 51.4627 -0 0
rfoot -18.53 -19.748 0.0290277
rtoes -16.9887 0 0
lowerback 9.02654 3.25047 -0.276907
upperback -3.85434 4.47147 1.69884
thorax -9.26849 2.23012 1.05247
lowerneck -5.51448 -0.17365 -4.30133
upperneck 11.081 -0.36963 4.61247
head 4.57124 -0.119375 1.96503
lclavicle 1.46507e-14 3.59393e-15 -3.05624e-30
lhumerus -22.2088 -0.293621 87.1502
lradius 49.7985 -0 0
lwrist -19.1027 0 0
lhand -35.8611 30.3816 0.0347416
lfingers 7.12502 -0 0
lthumb -8.97459 60.1438 0.0380455
rclavicle 1.46507e-14 3.59393e-15 -3.05624e-30
rhumerus -39.2074 20.7159 -85.8339
rradius 60.0222 -0 0
rwrist -27.1028 0 0
rhand -11.32 -32.5312 0.308389
rfingers 7.12502 -0 0
rthumb 14.6907 -61.7213 0.373801
3064
root -0.722247 16.0866 -31.5686 7.63222 -34.238 -8.37507
lfemur -25.8162 10.8877 -4.91404
ltibia 41.9097 -0 0
lfoot -9.82592 7.04448 -0.507384
ltoes -32.1077 0 0
rfemur -21.7147 -6.09846 17.9063
rtibia 51.3756 -0 0
rfoot -18.4885 -19.7431 0.0290515
rtoes -16.9943 0 0
lowerback 9.00737 3.24205 -0.280843
upperback -3.85794 4.45969 1.69944
thorax -9.26142 2.22486 1.05887
lowerneck -5.51976 -0.204176 -4.32175
upperneck 11.0893 -0.4099 4.62247
head 4.57509 -0.139347 1.96975
lclavicle 1.47655e-14 3.67054e-15 -3.04708e-30
lhumerus -22.2561 -0.34056 87.1678
lradius 49.653 -0 0
lwrist -19.1065 0 0
lhand -35.8455 30.3861 0.0346025
lfingers 7.12502 -0 0
lthumb -8.95952 60.149 0.0378954
rclavicle 1.47655e-14 3.67054e-15 -3.04708e-30
rhumerus -39.1744 20.6272 -85.7967
rradius 59.8558 -0 0
rwrist -26.9073 0 0
rhand -11.3637 -32.5475 0.307243
rfingers 7.12502 -0 0
rthumb 14.6487 -61.7417 0.372411
3065
root -0.709613 16.0921 -31.5789 7.60287 -33.9991 -8.33668
lfemur -25.7516 10.8023 -4.93398
ltibia 41.869 -0 0
lfoot -9.87328 7.06957 -0.505487
ltoes -32.1603 0 0
rfemur -21.6901 -6.05972 17.9075
rtibia 51.2885 -0 0
rfoot -18.4471 -19.7382 0.0290715
rtoes -16.9998 0 0
lowerback 8.98824 3.23364 -0.284772
upperback -3.86154 4.44793 1.70004
thorax -9.25436 2.2196 1.06527
lowerneck -5.52502 -0.234661 -4.34213
upperneck 11.0977 -0.450115 4.63245
head 4.57894 -0.159292 1.97446
lclavicle 1.48802e-14 3.74706e-15 -3.03777e-30
lhumerus -22.3035 -0.38745 87.1854
lradius 49.5076 -0 0
lwrist -19.1102 0 0
lhand -35.8299 30.3907 0.0344623
lfingers 7.12502 -0 0
lthumb -8.94447 60.1543 0.0377441
rclavicle 1.48802e-14 3.74706e-15 -3.03777e-30
rhumerus -39.1416 20.5386 -85.7596
rradius 59.6896 -0 0
rwrist -26.712 0 0
rhand -11.4073 -32.5637 0.306086
rfingers 7.12502 -0 0
rthumb 14.6068 -61.7621 0.371007
3066
root -0.696996 16.0976 -31.5893 7.57383 -33.7606 -8.29861
lfemur -25.6871 10.717 -4.95399
ltibia 41.8283 -0 0
lfoot -9.92058 7.09462 -0.503572
ltoes -32.2129 0 0
rfemur -21.6654 -6.02105 17.9088
rtibia 51.2015 -0 0
rfoot -18.4058 -19.7333 0.0290877
rtoes -17.0054 0 0
lowerback 8.96913 3.22523 -0.288694
upperback -3.86513 4.43618 1.70063
thorax -9.24731 2.21435 1.07165
lowerneck -5.53027 -0.265105 -4.36248
upperneck 11.106 -0.490274 4.64241
head 4.58278 -0.179208 1.97916
lclavicle 1.49947e-14 3.82349e-15 -3.02832e-30
lhumerus -22.3507 -0.43429 87.2031
lradius 49.3625 -0 0
lwrist -19.114 0 0
lhand -35.8143 30.3952 0.0343211
lfingers 7.12502 -0 0
lthumb -8.92944 60.1596 0.0375915
rclavicle 1.49947e-14 3.82349e-15 -3.02832e-30
rhumerus -39.1088 20.4501 -85.7226
rradius 59.5236 -0 0
rwrist -26.5169 0 0
rhand -11.4508 -32.5799 0.304917
rfingers 7.12502 -0 0
rthumb 14.5649 -61.7825 0.369591
3067
root -0.684395 16.1031 -31.5997 7.5451 -33.5224 -8.26084
lfemur -25.6227 10.6319 -4.97406
ltibia 41.7877 -0 0
lfoot -9.96782 7.11964 -0.501638
ltoes -32.2654 0 0
rfemur -21.6409 -5.98243 17.91
rtibia 51.1147 -0 0
rfoot -18.3645 -19.7284 0.0291
rtoes -17.0109 0 0
lowerback 8.95005 3.21684 -0.292608
upperback -3.86871 4.42444 1.70123
thorax -9.24026 2.2091 1.07802
lowerneck -5.53549 -0.295508 -4.38281
upperneck 11.1143 -0.530378 4.65235
head 4.58661 -0.199097 1.98385
lclavicle 1.51091e-14 3.89981e-15 -3.01873e-30
lhumerus -22.3978 -0.481078 87.2208
lradius 49.2175 -0 0
lwrist -19.1177 0 0
lhand -35.7988 30.3997 0.0341789
lfingers 7.12502 -0 0
lthumb -8.91442 60.1648 0.0374378
rclavicle 1.51091e-14 3.89981e-15 -3.01873e-30
rhumerus -39.0762 20.3618 -85.6858
rradius 59.3579 -0 0
rwrist -26.3221 0 0
rhand -11.4943 -32.5961 0.303738
rfingers 7.12502 -0 0
rthumb 14.5231 -61.8028 0.368161
3068
root -0.671811 16.1086 -31.61 7.51668 -33.2845 -8.22336
lfemur -25.5584 10.5469 -4.9942
ltibia 41.7471 -0 0
lfoot -10.015 7.14463 -0.499686
ltoes -32.3178 0 0
rfemur -21.6163 -5.94386 17.9113
rtibia 51.028 -0 0
rfoot -18.3233 -19.7235 0.0291086
rtoes -17.0164 0 0
lowerback 8.931 3.20846 -0.296514
upperback -3.87228 4.41272 1.70182
thorax -9.23323 2.20386 1.08438
lowerneck -5.5407 -0.325868 -4.4031
upperneck 11.1226 -0.570425 4.66227
head 4.59044 -0.218957 1.98854
lclavicle 1.52234e-14 3.97604e-15 -3.00901e-30
lhumerus -22.4449 -0.527814 87.2385
lradius 49.0728 -0 0
lwrist -19.1215 0 0
lhand -35.7832 30.4042 0.0340355
lfingers 7.12502 -0 0
lthumb -8.89943 60.1701 0.0372829
rclavicle 1.52234e-14 3.97604e-15 -3.00901e-30
rhumerus -39.0436 20.2735 -85.6491
rradius 59.1924 -0 0
rwrist -26.1275 0 0
rhand -11.5377 -32.6123 0.302549
rfingers 7.12502 -0 0
rthumb 14.4813 -61.8231 0.366718
